<?xml version="1.0" encoding="utf-8"?>
<!-- Generator: Adobe Illustrator 26.4.1, SVG Export Plug-In . SVG Version: 6.00 Build 0)  -->
<svg version="1.1" id="Layer_1" xmlns="http://www.w3.org/2000/svg" xmlns:xlink="http://www.w3.org/1999/xlink" x="0px" y="0px"
	 viewBox="0 0 143.4 150.1" style="enable-background:new 0 0 143.4 150.1;" xml:space="preserve">
<style type="text/css">
	.st0{fill:#BB184F;}
	.st1{fill:#FFFFFF;}
</style>
<circle class="st0" cx="71.7" cy="75.1" r="65.9"/>
<path class="st1" d="M101.1,115.8H42.3c-6.3,0-11.3-5.1-11.3-11.3V45.7c0-6.3,5.1-11.3,11.3-11.3h58.7c6.3,0,11.3,5.1,11.3,11.3
	v58.7C112.4,110.7,107.3,115.8,101.1,115.8z M42.3,42.3c-1.8,0-3.3,1.5-3.3,3.3v58.7c0,1.8,1.5,3.3,3.3,3.3h58.7
	c1.8,0,3.3-1.5,3.3-3.3V45.7c0-1.8-1.5-3.3-3.3-3.3H42.3z"/>
<g>
	<path class="st1" d="M59,69.5l-0.8-2.2h-7l-0.8,2.2c-0.3,0.9-0.6,1.4-0.8,1.7c-0.2,0.3-0.6,0.5-1.1,0.5c-0.4,0-0.8-0.2-1.2-0.5
		s-0.5-0.7-0.5-1.1c0-0.2,0-0.5,0.1-0.7c0.1-0.3,0.2-0.6,0.4-1l4.4-11.2c0.1-0.3,0.3-0.7,0.5-1.2c0.2-0.5,0.4-0.8,0.6-1.1
		c0.2-0.3,0.5-0.5,0.8-0.7c0.3-0.2,0.7-0.3,1.2-0.3c0.5,0,0.9,0.1,1.2,0.3c0.3,0.2,0.6,0.4,0.8,0.7c0.2,0.3,0.4,0.6,0.5,0.9
		s0.3,0.8,0.5,1.3l4.5,11.1c0.4,0.8,0.5,1.5,0.5,1.8c0,0.4-0.2,0.8-0.5,1.1c-0.3,0.3-0.7,0.5-1.2,0.5c-0.3,0-0.5,0-0.7-0.1
		c-0.2-0.1-0.4-0.2-0.5-0.4s-0.3-0.4-0.4-0.8S59.1,69.7,59,69.5z M52.1,64.7h5.1l-2.6-7.1L52.1,64.7z"/>
	<path class="st1" d="M67.5,54.2H72c1.2,0,2.2,0.1,3,0.3c0.8,0.2,1.6,0.6,2.3,1.2c1.8,1.5,2.7,3.9,2.7,7c0,1-0.1,2-0.3,2.8
		c-0.2,0.9-0.5,1.6-0.8,2.3c-0.4,0.7-0.9,1.3-1.4,1.8c-0.5,0.4-1,0.7-1.5,1c-0.5,0.3-1.1,0.4-1.8,0.5c-0.6,0.1-1.3,0.2-2.1,0.2h-4.5
		c-0.6,0-1.1-0.1-1.4-0.3c-0.3-0.2-0.5-0.5-0.6-0.8c-0.1-0.3-0.1-0.8-0.1-1.4V56.3c0-0.8,0.2-1.3,0.5-1.6
		C66.2,54.4,66.7,54.2,67.5,54.2z M68.8,57v11.7h2.6c0.6,0,1,0,1.4,0c0.3,0,0.7-0.1,1-0.2c0.4-0.1,0.7-0.3,0.9-0.5
		c1.2-1,1.8-2.7,1.8-5.1c0-1.7-0.3-3-0.8-3.8c-0.5-0.8-1.1-1.4-1.9-1.6S72.2,57,71.1,57H68.8z"/>
	<path class="st1" d="M85,56.2l3.9,11.5l3.9-11.6c0.2-0.6,0.4-1,0.5-1.3c0.1-0.2,0.3-0.5,0.5-0.6c0.2-0.2,0.6-0.3,1-0.3
		c0.3,0,0.6,0.1,0.8,0.2c0.3,0.1,0.5,0.3,0.6,0.6c0.1,0.2,0.2,0.5,0.2,0.7c0,0.2,0,0.4-0.1,0.6c0,0.2-0.1,0.4-0.2,0.6
		C96.1,56.8,96,57,96,57.2l-4.2,11.3c-0.1,0.4-0.3,0.8-0.4,1.2c-0.1,0.4-0.3,0.7-0.5,1c-0.2,0.3-0.5,0.5-0.8,0.7
		c-0.3,0.2-0.7,0.3-1.2,0.3c-0.5,0-0.9-0.1-1.2-0.3s-0.6-0.4-0.8-0.7c-0.2-0.3-0.4-0.6-0.5-1s-0.3-0.8-0.4-1.2l-4.1-11.2
		c-0.1-0.2-0.1-0.4-0.2-0.6s-0.1-0.4-0.2-0.6c-0.1-0.2-0.1-0.4-0.1-0.6c0-0.4,0.2-0.8,0.5-1.1c0.3-0.3,0.7-0.5,1.2-0.5
		c0.6,0,1,0.2,1.3,0.5C84.5,54.8,84.8,55.4,85,56.2z"/>
	<path class="st1" d="M59.4,80.1h-7.9v4.2h7.2c0.5,0,0.9,0.1,1.2,0.4c0.3,0.2,0.4,0.6,0.4,0.9s-0.1,0.7-0.4,1
		c-0.3,0.2-0.7,0.4-1.2,0.4h-7.2v4.9h8.1c0.5,0,1,0.1,1.2,0.4c0.3,0.3,0.4,0.6,0.4,1c0,0.4-0.1,0.7-0.4,1c-0.3,0.3-0.7,0.4-1.2,0.4
		h-9.5c-0.8,0-1.3-0.2-1.6-0.5c-0.3-0.3-0.5-0.9-0.5-1.6V79.6c0-0.5,0.1-0.9,0.2-1.2c0.1-0.3,0.4-0.5,0.7-0.7
		c0.3-0.1,0.7-0.2,1.2-0.2h9.2c0.6,0,1,0.1,1.2,0.4c0.3,0.2,0.4,0.6,0.4,1c0,0.4-0.1,0.7-0.4,1C60.3,80,59.9,80.1,59.4,80.1z"/>
	<path class="st1" d="M68.7,87.3h-1.2v5.5c0,0.7-0.2,1.3-0.5,1.6c-0.3,0.3-0.7,0.5-1.3,0.5c-0.6,0-1-0.2-1.3-0.5
		C64.2,94,64,93.5,64,92.8V79.6c0-0.8,0.2-1.3,0.5-1.6c0.3-0.3,0.9-0.5,1.6-0.5h5.7c0.8,0,1.5,0,2,0.1c0.6,0.1,1.1,0.2,1.5,0.4
		c0.5,0.2,1,0.6,1.4,1c0.4,0.4,0.7,0.9,0.9,1.5c0.2,0.6,0.3,1.2,0.3,1.8c0,1.3-0.4,2.3-1.1,3.1c-0.7,0.8-1.8,1.3-3.3,1.6
		c0.6,0.3,1.2,0.8,1.8,1.5s1.1,1.3,1.5,2.1c0.4,0.7,0.8,1.4,1,2s0.4,1,0.4,1.2c0,0.2-0.1,0.5-0.2,0.7s-0.3,0.4-0.6,0.5
		c-0.3,0.1-0.5,0.2-0.9,0.2c-0.4,0-0.7-0.1-1-0.3S75.2,94.2,75,94c-0.2-0.3-0.5-0.7-0.8-1.2l-1.4-2.3c-0.5-0.9-0.9-1.5-1.3-2
		c-0.4-0.4-0.8-0.8-1.2-0.9C69.9,87.4,69.4,87.3,68.7,87.3z M70.7,80h-3.2v4.7h3.1c0.8,0,1.5-0.1,2.1-0.2c0.6-0.1,1-0.4,1.3-0.7
		c0.3-0.3,0.5-0.8,0.5-1.4c0-0.5-0.1-0.9-0.4-1.3s-0.6-0.6-1-0.8C72.7,80.1,71.9,80,70.7,80z"/>
	<path class="st1" d="M91.3,80.3h-3.8v12.5c0,0.7-0.2,1.3-0.5,1.6c-0.3,0.3-0.7,0.5-1.2,0.5c-0.5,0-0.9-0.2-1.3-0.5
		c-0.3-0.4-0.5-0.9-0.5-1.6V80.3h-3.8c-0.6,0-1-0.1-1.3-0.4c-0.3-0.3-0.4-0.6-0.4-1c0-0.4,0.2-0.8,0.5-1.1c0.3-0.3,0.7-0.4,1.3-0.4
		h11.1c0.6,0,1.1,0.1,1.3,0.4c0.3,0.3,0.4,0.6,0.4,1s-0.1,0.8-0.4,1C92.4,80.2,91.9,80.3,91.3,80.3z"/>
</g>
</svg>
