<?xml version="1.0" encoding="utf-8"?>
<!-- Generator: Adobe Illustrator 26.4.1, SVG Export Plug-In . SVG Version: 6.00 Build 0)  -->
<svg version="1.1" id="Layer_1" xmlns="http://www.w3.org/2000/svg" xmlns:xlink="http://www.w3.org/1999/xlink" x="0px" y="0px"
	 viewBox="0 0 841.9 282.2" style="enable-background:new 0 0 841.9 282.2;" xml:space="preserve">
<style type="text/css">
	.st0{fill:#BB184F;}
	.st1{fill:#FFFFFF;}
</style>
<g>
	<path class="st0" d="M155.8,268.7H12.9c-2.3,0-4.2-1.9-4.2-4.2V18.9c0-2.3,1.9-4.2,4.2-4.2h142.9c2.3,0,4.2,1.9,4.2,4.2v245.6
		C159.9,266.8,158.1,268.7,155.8,268.7z"/>
	<rect x="32.9" y="55.4" class="st1" width="102.7" height="172.5"/>
	<circle class="st1" cx="82.9" cy="247.7" r="12.1"/>
	<rect x="56.8" y="30" class="st1" width="59.9" height="13.6"/>
</g>
<g>
	<path class="st0" d="M226.1,40.9h8.8l20.6,60.9h-8.2l-10.6-34c-2.2-6.8-4.1-13.5-6.1-20.5h-0.4c-1.9,7.1-3.8,13.7-6,20.5l-10.7,34
		h-7.9L226.1,40.9z M216.3,77.1h28.1v6.2h-28.1V77.1z"/>
	<path class="st0" d="M256.2,56.7h7.9l8.5,25.6c1.3,4.4,2.8,9,4.2,13.3h0.4c1.3-4.3,2.8-8.9,4.2-13.3l8.5-25.6h7.5l-16,45.1h-8.9
		L256.2,56.7z"/>
	<path class="st0" d="M301.4,90.1c0-9.8,8.5-14.7,27.7-16.8c0-5.8-1.9-11.4-9.3-11.4c-5.2,0-9.9,2.5-13.5,4.8l-3-5.2
		c4.2-2.7,10.5-5.9,17.7-5.9c11,0,15.7,7.3,15.7,18.6v27.7h-6.3l-0.6-5.4h-0.3c-4.3,3.6-9.3,6.5-14.9,6.5
		C307.1,102.9,301.4,98.2,301.4,90.1z M329.1,90.8V78.3c-15.1,1.8-20.2,5.5-20.2,11.3c0,5.1,3.5,7.2,7.9,7.2
		C321.2,96.8,324.8,94.7,329.1,90.8z"/>
	<path class="st0" d="M349.6,42.5c0-3,2.3-4.9,5.3-4.9c3,0,5.3,1.9,5.3,4.9c0,2.9-2.3,4.9-5.3,4.9C351.9,47.4,349.6,45.4,349.6,42.5
		z M351,56.7h7.6v45.1H351V56.7z"/>
	<path class="st0" d="M373.9,92.8V35.7h7.6v57.6c0,2.3,1,3.3,2.1,3.3c0.4,0,0.8,0,1.7-0.2l1,5.8c-1.1,0.4-2.4,0.7-4.4,0.7
		C376.2,102.9,373.9,99.3,373.9,92.8z"/>
	<path class="st0" d="M394.7,90.1c0-9.8,8.5-14.7,27.7-16.8c0-5.8-1.9-11.4-9.3-11.4c-5.2,0-9.9,2.5-13.5,4.8l-3-5.2
		c4.2-2.7,10.5-5.9,17.7-5.9c11,0,15.7,7.3,15.7,18.6v27.7h-6.3l-0.6-5.4h-0.3c-4.3,3.6-9.3,6.5-14.9,6.5
		C400.4,102.9,394.7,98.2,394.7,90.1z M422.5,90.8V78.3c-15.1,1.8-20.2,5.5-20.2,11.3c0,5.1,3.5,7.2,7.9,7.2
		C414.5,96.8,418.1,94.7,422.5,90.8z"/>
	<path class="st0" d="M451.4,97.2h-0.3l-0.7,4.7h-6.1V35.7h7.6v18.1l-0.3,8.1c4.1-3.6,9.2-6.3,14.2-6.3c11.7,0,17.9,9,17.9,23
		c0,15.4-9.2,24.4-19.5,24.4C460.1,102.9,455.4,100.8,451.4,97.2z M475.9,78.6c0-10-3.4-16.6-11.9-16.6c-3.8,0-7.8,2.1-12.1,6.2
		v23.7c4,3.4,8,4.7,11,4.7C470.4,96.5,475.9,89.8,475.9,78.6z"/>
	<path class="st0" d="M495.3,92.8V35.7h7.6v57.6c0,2.3,1,3.3,2.1,3.3c0.4,0,0.8,0,1.7-0.2l1,5.8c-1.1,0.4-2.4,0.7-4.4,0.7
		C497.7,102.9,495.3,99.3,495.3,92.8z"/>
	<path class="st0" d="M515.6,79.3c0-14.7,9.9-23.7,20.3-23.7c11.5,0,18,8.3,18,21.2c0,1.6-0.1,3.2-0.4,4.3h-30.4
		c0.5,9.6,6.4,15.8,15,15.8c4.3,0,7.9-1.4,11.2-3.6l2.7,5c-4,2.6-8.8,4.7-14.9,4.7C525.2,102.9,515.6,94.1,515.6,79.3z M547.2,75.6
		c0-9-4.1-14-11.1-14c-6.3,0-12,5.1-12.9,14H547.2z"/>
	<path class="st0" d="M580.2,79.3c0-15.1,9.8-23.7,20.9-23.7c11.1,0,20.9,8.7,20.9,23.7c0,14.9-9.8,23.6-20.9,23.6
		C590.1,102.9,580.2,94.3,580.2,79.3z M614.2,79.3c0-10.3-5.3-17.4-13-17.4c-7.8,0-13,7-13,17.4s5.3,17.3,13,17.3
		C608.9,96.6,614.2,89.7,614.2,79.3z"/>
	<path class="st0" d="M633.9,56.7h6.3l0.6,6.5h0.2c4.3-4.2,8.9-7.6,15.1-7.6c9.5,0,13.8,6.1,13.8,17.6v28.6h-7.6V74.2
		c0-8.4-2.5-12-8.5-12c-4.6,0-7.8,2.4-12.3,6.9v32.7h-7.6V56.7z"/>
	<path class="st0" d="M704.6,87.9v-25h-6.7v-5.8l7.1-0.4l0.9-12.7h6.4v12.7h12.2v6.2h-12.2V88c0,5.5,1.8,8.7,7,8.7
		c1.6,0,3.7-0.6,5.1-1.2l1.5,5.8c-2.5,0.9-5.6,1.7-8.4,1.7C707.9,102.9,704.6,96.8,704.6,87.9z"/>
	<path class="st0" d="M734.7,35.7h7.6v18.1L742,63c4.2-4.1,8.8-7.5,15-7.5c9.5,0,13.8,6.1,13.8,17.6v28.6h-7.6V74.2
		c0-8.4-2.5-12-8.5-12c-4.6,0-7.8,2.4-12.3,6.9v32.7h-7.6V35.7z"/>
	<path class="st0" d="M781.8,79.3c0-14.7,9.9-23.7,20.3-23.7c11.5,0,18,8.3,18,21.2c0,1.6-0.1,3.2-0.4,4.3h-30.4
		c0.5,9.6,6.4,15.8,15,15.8c4.3,0,7.9-1.4,11.2-3.6l2.7,5c-4,2.6-8.8,4.7-14.9,4.7C791.4,102.9,781.8,94.1,781.8,79.3z M813.4,75.6
		c0-9-4.1-14-11.1-14c-6.3,0-12,5.1-12.9,14H813.4z"/>
</g>
<g>
	<path class="st0" d="M239.5,132.4h21.8l34.3,105.1h-19.7l-16-55.9c-3.3-11.1-6.4-23.1-9.5-34.6h-0.6c-2.9,11.6-6,23.5-9.3,34.6
		l-16.1,55.9h-19L239.5,132.4z M225.5,194.3H275V209h-49.5V194.3z"/>
	<path class="st0" d="M301.4,158.5h15.2l1.4,8.4h0.5c6.7-5.7,15.1-10.3,23.8-10.3c19.7,0,31,15.8,31,40.2c0,27-16.1,42.6-33.7,42.6
		c-7,0-13.9-3.1-20.3-8.7l0.6,13.1v24.9h-18.5V158.5z M354.3,196.9c0-15.7-5.1-25.1-17.2-25.1c-5.7,0-11.1,2.9-17.2,8.9v36.8
		c5.7,4.8,11.2,6.6,15.8,6.6C346.2,224.1,354.3,214.8,354.3,196.9z"/>
	<path class="st0" d="M386.4,158.5h15.2l1.4,8.4h0.5c6.7-5.7,15.1-10.3,23.8-10.3c19.7,0,31,15.8,31,40.2c0,27-16.1,42.6-33.7,42.6
		c-7,0-13.9-3.1-20.3-8.7l0.6,13.1v24.9h-18.5V158.5z M439.3,196.9c0-15.7-5.1-25.1-17.2-25.1c-5.7,0-11.1,2.9-17.2,8.9v36.8
		c5.7,4.8,11.2,6.6,15.8,6.6C431.2,224.1,439.3,214.8,439.3,196.9z"/>
	<path class="st0" d="M491.3,224l10.9-12.8c7.5,7.2,17.6,12,27.4,12c11.8,0,18.3-5.4,18.3-13.6c0-8.6-6.8-11.4-16.3-15.5l-14.4-6.2
		c-10.3-4.3-21.2-12.5-21.2-27.9c0-16.7,14.8-29.6,35.3-29.6c12.3,0,24.2,5.1,32.4,13.4l-9.6,11.8c-6.7-5.7-13.8-9-22.8-9
		c-10,0-16.4,4.7-16.4,12.3c0,8.3,8,11.3,16.7,14.9l14.2,5.9c12.5,5.2,21.2,13.1,21.2,28.3c0,17-14.1,31.2-37.7,31.2
		C515,239.4,501.3,233.8,491.3,224z"/>
	<path class="st0" d="M577.5,210.8v-37.6h-11.3v-13.9l12.2-0.8l2.2-21.5H596v21.5h20.1v14.7H596v37.6c0,9.3,3.6,13.9,11.2,13.9
		c2.7,0,5.9-0.9,8.2-1.8l3.1,13.6c-4.3,1.4-9.8,2.9-16.1,2.9C584.2,239.4,577.5,227.9,577.5,210.8z"/>
	<path class="st0" d="M619.3,198c0-26.3,17.9-41.4,37.5-41.4c19.7,0,37.5,15.2,37.5,41.4c0,26.2-17.9,41.3-37.5,41.3
		C637.2,239.4,619.3,224.2,619.3,198z M675.4,198c0-15.8-6.9-26.3-18.5-26.3c-11.6,0-18.5,10.5-18.5,26.3s6.9,26.2,18.5,26.2
		C668.4,224.3,675.4,213.9,675.4,198z"/>
	<path class="st0" d="M707.1,158.5h15.2l1.4,14.1h0.5c5.6-10.3,14-16,22.4-16c4,0,6.6,0.5,8.9,1.6l-3.2,16.1
		c-2.8-0.8-4.8-1.3-8.1-1.3c-6.3,0-13.9,4.3-18.6,16.3v48.1h-18.5V158.5z"/>
	<path class="st0" d="M754.6,198c0-25.6,17.8-41.4,36.4-41.4c21.3,0,32.6,15.4,32.6,37.5c0,3.5-0.4,7.1-0.8,9h-50.1
		c1.5,14,10.5,22,23.3,22c6.7,0,12.5-2.1,18.3-5.7l6.3,11.5c-7.5,5.1-17,8.5-27.1,8.5C771.7,239.4,754.6,224.1,754.6,198z
		 M807.6,190.5c0-12.1-5.4-19.5-16.2-19.5c-9.2,0-17.3,6.9-18.9,19.5H807.6z"/>
</g>
</svg>
