<?xml version="1.0" encoding="utf-8"?>
<!-- Generator: Adobe Illustrator 26.4.1, SVG Export Plug-In . SVG Version: 6.00 Build 0)  -->
<svg version="1.1" id="Layer_1" xmlns="http://www.w3.org/2000/svg" xmlns:xlink="http://www.w3.org/1999/xlink" x="0px" y="0px"
	 viewBox="0 0 143.4 150.1" style="enable-background:new 0 0 143.4 150.1;" xml:space="preserve">
<style type="text/css">
	.st0{fill:#BB184F;}
	.st1{fill:#FFFFFF;}
</style>
<circle class="st0" cx="71.7" cy="75.1" r="65.9"/>
<path class="st1" d="M112.8,77.7c-2.2-4.9-6.3-8.8-11-11.2c-8.4-4.2-18.8-4.2-27.1,0.1c-5.8,3-10.7,8.3-12,14.8
	c-1.1,4.8-0.1,9.9,2.4,14.1c3.8,6.3,10.6,10.3,17.7,11.6c5.1,1,10.4,0.4,15.4-1c3,1.2,5.7,3,8.6,4.4c-0.8-2.5-1.6-5-2.4-7.5
	c3.3-2.3,6.2-5.2,8-8.8C114.9,89.2,115.1,82.9,112.8,77.7z M77.5,44c-8.9-5-19.9-5.7-29.5-2.3c-6.3,2.3-12,6.5-15.5,12.2
	c-3.2,5.2-4.4,11.6-2.8,17.5c1.5,6.5,6.1,12,11.6,15.7c-1.1,3-2.1,6-3,9.1c3.5-1.8,6.9-3.7,10.4-5.6c4.2,1.3,8.6,2,13,1.8
	c-1.2-3.4-1.4-7-0.9-10.5c0.8-4.9,3.5-9.3,7.1-12.6c6.1-5.7,14.8-8.2,23.1-7.6C89.4,54.2,84.1,47.7,77.5,44L77.5,44L77.5,44z
	 M83.6,79.6c-0.7,2.3-4.1,3-5.7,1.3c-1.8-1.6-1.1-5,1.3-5.8C81.7,73.9,84.8,77,83.6,79.6z M100.7,79.9c-0.9,2.1-4.1,2.6-5.6,1
	c-0.7-0.7-1-1.7-1.2-2.6c0.4-1.6,1.5-3.3,3.3-3.4C99.7,74.5,101.9,77.6,100.7,79.9L100.7,79.9L100.7,79.9z M75.2,56.9
	c0,3.4-4.5,5.6-7.1,3.2c-2.7-1.9-1.9-6.5,1.2-7.5C72.1,51.6,75.4,53.9,75.2,56.9L75.2,56.9z M53.7,57.8c-0.6,3-4.6,4.4-6.9,2.4
	c-2.7-1.9-1.9-6.6,1.2-7.6C51.1,51.4,54.6,54.6,53.7,57.8z"/>
</svg>
