<?xml version="1.0" encoding="utf-8"?>
<!-- Generator: Adobe Illustrator 26.4.1, SVG Export Plug-In . SVG Version: 6.00 Build 0)  -->
<svg version="1.1" id="Layer_1" xmlns="http://www.w3.org/2000/svg" xmlns:xlink="http://www.w3.org/1999/xlink" x="0px" y="0px"
	 viewBox="0 0 143.4 150.1" style="enable-background:new 0 0 143.4 150.1;" xml:space="preserve">
<style type="text/css">
	.st0{fill:#BB184F;}
	.st1{fill:#FFFFFF;}
</style>
<circle class="st0" cx="71.7" cy="75.1" r="65.9"/>
<g>
	<g>
		<path class="st1" d="M95.7,38.6h-48c-6.8,0-12.4,5.6-12.4,12.4v48c0,6.8,5.6,12.4,12.4,12.4h48c6.8,0,12.4-5.6,12.4-12.4V51
			C108.1,44.2,102.5,38.6,95.7,38.6z M105.1,99.1c0,5.2-4.2,9.4-9.4,9.4h-48c-5.2,0-9.4-4.2-9.4-9.4V51c0-5.2,4.2-9.4,9.4-9.4h48
			c5.2,0,9.4,4.2,9.4,9.4V99.1z"/>
		<path class="st1" d="M95.7,113.5h-48c-7.9,0-14.4-6.5-14.4-14.4V51c0-7.9,6.5-14.4,14.4-14.4h48c7.9,0,14.4,6.5,14.4,14.4v48
			C110.1,107,103.6,113.5,95.7,113.5z M47.7,43.6c-4.1,0-7.4,3.3-7.4,7.4v48c0,4.1,3.3,7.4,7.4,7.4h48c4.1,0,7.4-3.3,7.4-7.4V51
			c0-4.1-3.3-7.4-7.4-7.4H47.7z"/>
	</g>
	<g>
		<rect x="49" y="96.6" class="st1" width="45.5" height="3.5"/>
		<rect x="47" y="94.6" class="st1" width="49.5" height="7.5"/>
	</g>
	<g>
		<polygon class="st1" points="71.7,89.2 73.6,87.1 73.7,87.1 73.7,87 80.9,79.1 73.7,79.1 73.7,54.2 69.7,54.2 69.7,79.1 
			61.6,79.1 		"/>
		<path class="st1" d="M71.8,92L56.7,77.1h11V52.2h8v24.9h9.8l-9.8,10.6V89l-1.2,0L71.8,92z M66.4,81.1l5.2,5.1l4.7-5.1H66.4z"/>
	</g>
</g>
</svg>
