<?xml version="1.0" encoding="utf-8"?>
<!-- Generator: Adobe Illustrator 26.4.1, SVG Export Plug-In . SVG Version: 6.00 Build 0)  -->
<svg version="1.1" id="Layer_1" xmlns="http://www.w3.org/2000/svg" xmlns:xlink="http://www.w3.org/1999/xlink" x="0px" y="0px"
	 viewBox="0 0 143.4 150.1" style="enable-background:new 0 0 143.4 150.1;" xml:space="preserve">
<style type="text/css">
	.st0{fill:#15959E;}
	.st1{fill:#FFFFFF;}
</style>
<circle class="st0" cx="71.7" cy="75.1" r="65.9"/>
<g>
	<path class="st1" d="M77.6,63.5c-0.3-0.1-0.9-0.2-1.8-0.2v7.4c0.4,0,0.7,0,0.9,0c0.8,0,1.4-0.2,1.6-0.6c0.2-0.4,0.3-1.6,0.3-3.6
		c0-1-0.1-1.8-0.3-2.2C78.2,63.9,77.9,63.6,77.6,63.5z"/>
	<path class="st1" d="M75.8,75.9v9.3c1.2,0,2-0.2,2.3-0.6s0.5-1.2,0.5-2.5V79c0-1.4-0.2-2.3-0.5-2.6C77.9,76.1,77.1,75.9,75.8,75.9z
		"/>
	<path class="st1" d="M71.7,22.4c-29.1,0-52.6,23.6-52.6,52.6c0,29.1,23.6,52.6,52.6,52.6c29.1,0,52.6-23.6,52.6-52.6
		C124.3,46,100.8,22.4,71.7,22.4z M40.9,79.8c0,3.3,0,5.5-0.1,6.4s-0.4,1.8-0.9,2.6s-1.3,1.3-2.3,1.6s-2.4,0.4-4.3,0.4H29V85
		c0.5,0,0.9,0.1,1.1,0.1c0.6,0,1.1-0.1,1.5-0.5c0.4-0.3,0.6-0.7,0.6-1.1s0.1-1.3,0.1-2.5V57.7h8.6V79.8z M64,77.1
		c0,3.3-0.1,5.7-0.2,7.1c-0.2,1.4-0.6,2.7-1.5,3.8c-0.8,1.1-1.9,2-3.4,2.6c-1.4,0.6-3,0.9-4.9,0.9c-1.8,0-3.4-0.3-4.8-0.9
		c-1.4-0.6-2.6-1.5-3.4-2.6s-1.4-2.4-1.5-3.8c-0.2-1.4-0.2-3.8-0.2-7.2v-5.7c0-3.3,0.1-5.7,0.2-7.1c0.2-1.4,0.6-2.7,1.5-3.8
		c0.8-1.1,1.9-2,3.4-2.6c1.4-0.6,3-0.9,4.9-0.9c1.8,0,3.4,0.3,4.8,0.9s2.6,1.5,3.4,2.6c0.9,1.2,1.4,2.4,1.5,3.8
		c0.2,1.4,0.2,3.8,0.2,7.2V77.1z M87.3,83c0,2.2-0.3,3.9-0.8,5c-0.5,1.1-1.3,1.8-2.4,2.2c-1.1,0.4-3.4,0.6-6.9,0.6h-10V57.7h8.6
		c2.7,0,4.8,0.2,6.2,0.6c1.4,0.4,2.5,1.3,3.4,2.6s1.3,3.4,1.3,6.2c0,1.9-0.3,3.3-0.9,4.1s-1.8,1.4-3.6,1.8c2,0.5,3.3,1.2,4.1,2.2
		c0.7,1,1.1,2.6,1.1,4.8V83z M108.5,87.6c-0.6,1.1-1.6,2.1-3.2,2.8c-1.6,0.8-3.4,1.1-5.5,1.1c-2.3,0-4.3-0.4-5.9-1.3
		c-1.6-0.9-2.7-2-3.2-3.3c-0.5-1.4-0.8-3.3-0.8-5.8v-2.2h8v4c0,1.2,0.1,2,0.3,2.4c0.2,0.4,0.6,0.5,1.2,0.5s1-0.2,1.3-0.7
		c0.3-0.5,0.4-1.1,0.4-2c0-2-0.3-3.2-0.8-3.8c-0.5-0.6-1.9-1.6-4-3c-2.1-1.4-3.6-2.5-4.3-3.1c-0.7-0.6-1.3-1.5-1.7-2.7
		c-0.5-1.1-0.7-2.6-0.7-4.3c0-2.5,0.3-4.4,1-5.6c0.6-1.2,1.7-2.1,3.1-2.8s3.2-1,5.2-1c2.2,0,4.1,0.4,5.7,1.1
		c1.6,0.7,2.6,1.6,3.1,2.7c0.5,1.1,0.8,3,0.8,5.6v1.3h-8v-2.5c0-1.1-0.1-1.9-0.3-2.2c-0.2-0.3-0.5-0.5-1-0.5c-0.5,0-0.9,0.2-1.2,0.6
		c-0.3,0.4-0.4,1.1-0.4,1.9c0,1.1,0.1,1.9,0.4,2.5c0.3,0.6,1.1,1.2,2.4,2c3.8,2.3,6.3,4.1,7.3,5.6s1.5,3.8,1.5,7.1
		C109.4,84.7,109.1,86.4,108.5,87.6z"/>
	<path class="st1" d="M54.1,62.6c-0.5,0-0.8,0.2-1,0.5c-0.2,0.3-0.4,1.4-0.4,3.1v15.5c0,1.9,0.1,3.1,0.2,3.6
		c0.2,0.5,0.5,0.7,1.1,0.7c0.6,0,1-0.3,1.1-0.8c0.2-0.5,0.2-1.8,0.2-3.7V66.2c0-1.5-0.1-2.5-0.3-3C54.9,62.8,54.6,62.6,54.1,62.6z"
		/>
</g>
</svg>
