<?xml version="1.0" encoding="utf-8"?>
<!-- Generator: Adobe Illustrator 26.4.1, SVG Export Plug-In . SVG Version: 6.00 Build 0)  -->
<svg version="1.1" id="Layer_1" xmlns="http://www.w3.org/2000/svg" xmlns:xlink="http://www.w3.org/1999/xlink" x="0px" y="0px"
	 viewBox="0 0 335 184.3" style="enable-background:new 0 0 335 184.3;" xml:space="preserve">
<style type="text/css">
	.st0{fill:#BB184F;}
</style>
<g>
	<g>
		<path class="st0" d="M69.9,133.6c-1,0-2-0.2-3.1-0.5c-7.4-1.8-12.3-10.7-14.8-26.7c-2.6-17.1-2.7-41.9-0.3-74.4
			c0.2-3.4,0.6-6.2,1.1-8.3c0.5-2.1,1.1-3.7,1.7-4.9c0.6-1.2,1.3-2,2-2.6c0.7-0.5,1.3-0.9,1.9-1.1c0.5-0.2,1.2-0.3,2.3-0.2
			c1.1,0.1,2.2,0.9,3.5,2.2c1.7,2,3,5.3,3.8,9.9c0.9,4.5,1.2,9.7,0.9,15.3c-0.2,5-1.1,11.1-2.7,18.3c-1.6,7.2-4.6,15-9,23.4
			C57,84,57,84.1,57,84.2c0.2,4,0.5,7.7,0.7,11.2c0.2,3.5,0.6,6.8,1.2,9.7c0.7,4.3,1.4,7.8,2.3,10.5c0.9,2.7,1.7,4.8,2.6,6.4
			c0.9,1.6,1.7,2.7,2.6,3.4c0.9,0.7,1.6,1.1,2.3,1.2c1.9,0.6,4.3-0.1,7-2s5.7-4.7,9-8.6c3.2-3.7,6.4-8.7,9.8-14.7
			c3.3-6.1,6.6-12.3,9.6-18.8c0.5-0.9,1.1-1.5,2-1.8c0.9-0.3,1.7-0.2,2.6,0.3c0.9,0.5,1.5,1.1,1.8,2c0.3,0.9,0.2,1.7-0.3,2.6
			c-3.3,6.7-6.7,13.2-10.1,19.4c-3.5,6.2-6.8,11.4-10.1,15.3C82.5,129.1,75.8,133.6,69.9,133.6z M59.9,23.4
			c-0.2,0.8-0.5,1.9-0.7,3.3c-0.2,1.4-0.5,3.3-0.7,5.7c-0.5,6.5-0.8,12.6-1.1,18.5C57.1,56.7,57,62.3,57,67.6
			c3.1-8.9,4.8-17.8,5.1-26.9c0.2-4.4,0.1-8.1-0.5-11C61,26.9,60.4,24.7,59.9,23.4z"/>
		<path class="st0" d="M69.9,138.6c-1.5,0-3-0.2-4.5-0.7c-9.5-2.5-15.5-12.5-18.4-30.8c-2.7-17.5-2.8-42.9-0.4-75.6
			c0.2-3.7,0.6-6.7,1.2-9.1c0.6-2.5,1.3-4.5,2.1-6.1c1-1.9,2.1-3.3,3.4-4.2c1-0.7,1.9-1.3,2.9-1.7c0.7-0.3,1.4-0.5,2.2-0.6L59,8.3
			l0.6,1.5c0.5,0,1,0,1.5,0.1c2.4,0.3,4.5,1.5,6.7,3.8l0.2,0.2c2.3,2.7,3.9,6.7,4.9,12.2c0.9,4.9,1.3,10.4,1,16.4
			c-0.2,5.3-1.2,11.7-2.8,19.2c-1.6,7.3-4.6,15.3-9,23.7c0.2,3.4,0.4,6.6,0.6,9.7c0.2,3.3,0.6,6.4,1.1,9.1l0,0.2
			c0.6,4,1.4,7.3,2.1,9.7c0.8,2.4,1.5,4.2,2.2,5.5c0.8,1.5,1.3,1.9,1.3,1.9c0.1,0.1,0.2,0.2,0.3,0.2l0.3,0.1c0,0,0.8,0,2.7-1.3
			c2.3-1.6,5.1-4.2,8.1-7.7c2.9-3.5,6-8.1,9.2-13.9c3.3-6,6.5-12.2,9.5-18.5l0-0.1c1-2.1,2.7-3.6,4.8-4.3c2.1-0.7,4.4-0.5,6.5,0.5
			c2.1,1.1,3.6,2.7,4.3,4.8c0.7,2.1,0.5,4.4-0.5,6.5c-3.3,6.7-6.8,13.3-10.2,19.6c-3.6,6.5-7.2,11.9-10.7,16.1
			C85.2,133.6,77.5,138.6,69.9,138.6z M105.6,83.3C105.6,83.3,105.6,83.3,105.6,83.3C105.6,83.3,105.6,83.3,105.6,83.3z"/>
	</g>
	<g>
		<path class="st0" d="M168.7,81.6c0.7,0.7,1,1.5,0.9,2.5c-0.1,1-0.4,1.7-1.1,2.3c-1.9,1.8-4,3.4-6.3,4.6c-2.3,1.3-4.6,2.3-7.1,3.2
			c-2.4,0.9-4.9,1.4-7.2,1.8c-2.4,0.3-4.7,0.5-6.8,0.5v0.3c0,4.3-0.5,8.5-1.4,12.7c-0.9,4.1-2.2,7.9-3.7,11.2
			c-2,4.1-4.5,7.2-7.3,9.5c-2.8,2.2-5.9,3.3-9.2,3.3c-7,0-12.5-3.4-16.5-10.2c-1.5-2.6-2.6-5.6-3.4-8.9c-0.8-3.3-1.2-6.8-1.2-10.4
			c0-3.6,0.5-7.4,1.5-11.4c1-4,2.3-7.3,3.9-10c0.5-0.9,1.1-1.5,2-1.7c0.9-0.2,1.7-0.1,2.6,0.3c0.9,0.6,1.5,1.3,1.7,2.1
			c0.2,0.9,0.1,1.7-0.3,2.6c-1.4,2.3-2.4,4.9-3.2,7.9c-0.7,3-1.1,6.1-1.2,9.2c-0.1,3.1,0.2,6.2,0.8,9.1c0.6,3,1.5,5.5,2.7,7.7
			c2.7,4.5,6.2,6.8,10.6,6.8c1.2,0,2.4-0.3,3.5-0.9c1.1-0.6,2.1-1.4,3-2.3c0.9-0.9,1.7-1.9,2.3-2.9c0.6-1,1.2-1.9,1.6-2.7
			c1.4-3,2.4-6.3,3.2-10c0.8-3.7,1.2-7.3,1.2-11v-1c-3.3-0.5-6.3-1-8.9-1.7c-2.7-0.7-4.7-1.4-6-2.2c-3.2-1.7-5.2-3.7-6-6
			c-0.9-2.3-1-4.4-0.4-6.3c0.5-2.3,1.8-4.3,4.1-6c2.4-1.5,4.9-2.2,7.7-2.2c2.7,0,5.2,0.7,7.4,2.2c2.2,1.5,4.1,3.5,5.5,6.1
			c1.5,2.6,2.5,5.8,3.1,9.7c0.2,0,0.4,0,0.4,0.1c0.1,0.1,0.1,0.1,0.3,0.1c3.6,0.1,7.6-0.5,11.8-2c4.3-1.4,7.9-3.5,10.8-6.2
			c0.7-0.7,1.5-1,2.5-0.9C167.4,80.6,168.1,80.9,168.7,81.6z M122.5,85.9c0.9,0.5,2.3,0.9,4.3,1.4c1.9,0.5,4.2,1,6.8,1.4
			c-0.5-2.2-1.1-4.1-2-5.8c-1.7-3.2-4-4.8-7-4.8c-1.6,0-2.8,0.3-3.7,0.9c-0.9,0.6-1.4,1.3-1.6,2.1C119,82.9,120,84.4,122.5,85.9z"/>
		<path class="st0" d="M119.5,138.4c-8.8,0-16-4.4-20.8-12.7c-1.7-3.1-3-6.5-3.9-10.2c-0.9-3.7-1.3-7.6-1.3-11.6
			c0-4,0.6-8.3,1.7-12.7c1.1-4.3,2.6-8.1,4.4-11.2c1.1-2.1,2.9-3.6,5.1-4.1c1.4-0.4,2.9-0.4,4.3,0c1-2.4,2.8-4.5,5.2-6.3l0.4-0.3
			c3.2-2,6.6-3,10.3-3c3.7,0,7.1,1,10.2,3.1c2.9,1.9,5.3,4.5,7.1,7.8c1.2,2.1,2.1,4.5,2.8,7.2c2.1-0.2,4.4-0.8,6.8-1.6
			c3.5-1.2,6.5-2.9,9-5.1c1.7-1.6,3.9-2.4,6.2-2.3c2.3,0.1,4.3,1.1,5.7,2.7c1.6,1.7,2.4,3.8,2.2,6.1c-0.1,2.3-1.1,4.3-2.8,5.7
			c-2.2,2.1-4.6,3.8-7.2,5.3c-2.5,1.4-5.1,2.5-7.8,3.5c-2.7,1-5.5,1.6-8.2,2c-0.9,0.1-1.8,0.2-2.7,0.3c-0.2,3.2-0.7,6.3-1.3,9.3
			c-1,4.5-2.4,8.6-4.1,12.3c-2.4,4.8-5.3,8.6-8.7,11.2C128,136.9,123.9,138.4,119.5,138.4z M112.1,92.8c-0.2,0.7-0.4,1.4-0.6,2.2
			c-0.6,2.6-1,5.4-1,8.1c-0.1,2.8,0.2,5.5,0.7,8.1c0.5,2.4,1.2,4.4,2.1,6.1c2.3,3.8,4.5,4.3,6.2,4.3c0.4,0,0.7-0.1,1-0.3
			c0.7-0.4,1.3-0.9,1.9-1.5c0.6-0.6,1.2-1.3,1.6-2c0.5-0.9,1-1.7,1.4-2.4c1.2-2.6,2.1-5.5,2.8-8.7c0.5-2.2,0.8-4.5,1-6.7
			c-1.8-0.3-3.5-0.7-5.1-1.1c-3.1-0.8-5.5-1.7-7.2-2.7C115,95.2,113.4,94.1,112.1,92.8z M123.7,83.3L123.7,83.3L123.7,83.3z"/>
	</g>
	<g>
		<path class="st0" d="M245.3,81.1c0.9,0.5,1.5,1.1,1.8,2c0.3,0.9,0.3,1.7-0.1,2.6c-2,4.2-4.8,8.4-8.2,12.6
			c-3.4,4.2-7.2,8.3-11.3,12.4c-4.1,4.1-8.5,8-13.1,11.8c-4.6,3.8-9.1,7.4-13.5,10.8l-7.2,5.6c-1.1,11.1-2.9,18.8-5.3,23
			c-3.3,5.7-7,9.8-11.2,12.3c-2.3,1.5-4.7,2.2-7.2,2.2c-1.7,0-3.1-0.3-4.3-1c-2.6-1.4-4.1-3.6-4.4-6.8c-0.2-3,0.5-6.1,2.2-9.4
			c1.9-3.7,5-7.6,9.2-11.5c4.2-3.9,9-8,14.5-12.3l0.7-9.2c-2.2,3.1-4.3,5.1-6.5,6c-2.2,0.9-4,1.4-5.6,1.4c-0.2,0-0.4,0-0.5-0.1
			c-0.1-0.1-0.3-0.1-0.5-0.1c-2.5-0.2-4.8-1.2-7-2.8c-2.2-1.6-4-3.9-5.6-6.9c-3.2-5.8-4.5-12.5-3.9-20.3c0.5-4.7,1.3-8.9,2.4-12.8
			c1.1-3.9,2.7-7.3,4.6-10.2c3.9-5.8,8.4-8.9,13.6-9.2c3.9-0.3,7.3,1.1,10.2,4.3c2.8,3,4.8,7.1,6,12.4c0.2,0.9,0.1,1.8-0.4,2.6
			c-0.5,0.8-1.2,1.3-2.1,1.5c-0.9,0.2-1.8,0.1-2.6-0.5c-0.8-0.6-1.3-1.3-1.5-2.2c-0.8-3.6-2-6.5-3.7-8.5c-1.6-2-3.5-3-5.5-2.7
			c-1.5,0.1-3,0.7-4.5,1.9c-1.5,1.1-3,2.8-4.3,5c-1.3,2.2-2.4,4.9-3.4,8.1c-1,3.2-1.6,6.8-2,10.9c-0.6,6.6,0.5,12.1,3.1,16.5
			c0.9,1.8,2,3.3,3.3,4.3c1.3,1.1,2.6,1.7,4,1.8c2.6,0.2,5.2-1.8,7.9-6c2.7-4.2,4.5-11.1,5.4-20.8c0-0.7,0.3-1.4,0.9-2
			c0.6-0.7,1.5-1,2.7-1c1.1,0,2,0.3,2.5,1c0.5,0.7,0.8,1.5,0.8,2.4c-0.1,11-0.5,20.9-1,29.6l2.2-1.9c4.2-3.3,8.5-6.8,12.9-10.5
			c4.4-3.7,8.6-7.5,12.6-11.3c4-3.9,7.6-7.8,10.8-11.8c3.2-4,5.8-7.9,7.7-11.8c0.5-0.9,1.1-1.5,2-1.8
			C243.7,80.6,244.5,80.6,245.3,81.1z M182.5,158.6c1.4-2.5,2.6-7,3.6-13.5c-3.9,3.2-7.2,6.2-10.1,9.1s-5,5.6-6.2,8.3
			c-1,1.9-1.5,3.5-1.5,4.7s0.3,2,0.9,2.3c0.9,0.6,2.7,0.1,5.4-1.4C177.1,166.6,179.8,163.5,182.5,158.6z"/>
		<path class="st0" d="M170.1,181.5c-2.6,0-4.8-0.6-6.7-1.7c-4-2.2-6.4-5.8-7-10.6l0-0.2c-0.3-3.9,0.6-7.9,2.8-12
			c2.2-4.2,5.6-8.6,10.2-12.9c1.9-1.8,4-3.7,6.2-5.6c-0.5,0-1-0.1-1.4-0.2c-3.4-0.3-6.5-1.6-9.4-3.8c-2.7-2.1-5.1-4.9-7-8.5
			c-3.6-6.6-5.1-14.3-4.5-23l0-0.1c0.5-4.9,1.3-9.5,2.6-13.7c1.3-4.3,3-8.2,5.2-11.5c4.8-7.1,10.6-11,17.4-11.4
			c5.4-0.5,10.3,1.6,14.3,5.8c3.4,3.6,5.8,8.5,7.2,14.7c0.5,2.2,0.1,4.5-1.1,6.4c-0.2,0.3-0.4,0.6-0.7,0.9c0.3,0.3,0.5,0.5,0.6,0.7
			c1.2,1.5,1.8,3.4,1.8,5.4c-0.1,6.6-0.2,12.9-0.5,18.7c2.1-1.7,4.2-3.5,6.4-5.2c4.3-3.6,8.4-7.3,12.3-11.1
			c3.8-3.7,7.3-7.5,10.4-11.3c3-3.7,5.4-7.3,7.2-10.8c1-2.1,2.7-3.6,4.8-4.3c2.2-0.7,4.4-0.5,6.4,0.6c2,1.1,3.5,2.7,4.2,4.8
			c0.6,2,0.6,4-0.1,6l-0.2,0.4c-2.2,4.5-5.2,9.1-8.8,13.6c-3.5,4.3-7.4,8.6-11.7,12.8c-4.2,4.2-8.8,8.3-13.4,12.1
			c-4.6,3.8-9.2,7.5-13.7,10.9l-5.5,4.3c-1.2,10.8-3.1,18.3-5.7,22.8c-3.7,6.4-8.1,11.1-12.9,14
			C176.8,180.5,173.5,181.5,170.1,181.5z M173.1,137.9c0.1,0.1,0.2,0.1,0.4,0.2C173.3,138.1,173.2,138,173.1,137.9z M179.8,83
			C179.8,83,179.8,83,179.8,83l-0.2,0c-0.5,0-1.2,0.4-1.9,0.9c-1,0.7-2,1.9-2.9,3.5c-1.1,1.9-2.1,4.2-2.9,7
			c-0.9,2.8-1.5,6.1-1.8,9.9c-0.5,5.5,0.3,10.1,2.4,13.6l0.2,0.3c0.6,1.2,1.3,2.1,2,2.7c0.5,0.4,0.9,0.6,1.2,0.7
			c0,0,1.2-0.4,3.3-3.7c1.5-2.4,3.6-7.5,4.6-18.4c0.1-1.3,0.5-3.1,2-4.9c0,0,0,0,0.1-0.1c-1.1-1.1-1.9-2.5-2.3-4l0-0.1
			c-0.6-2.9-1.5-5-2.7-6.5C180.5,83.4,180.1,83,179.8,83z"/>
	</g>
	<g>
		<path class="st0" d="M305.6,81.6c0.7,0.7,1,1.5,0.9,2.5c-0.1,1-0.4,1.7-1.1,2.3c-1.9,1.8-4,3.4-6.3,4.6c-2.3,1.3-4.6,2.3-7.1,3.2
			c-2.4,0.9-4.9,1.4-7.2,1.8c-2.4,0.3-4.7,0.5-6.8,0.5v0.3c0,4.3-0.5,8.5-1.4,12.7c-0.9,4.1-2.2,7.9-3.7,11.2
			c-2,4.1-4.5,7.2-7.3,9.5s-5.9,3.3-9.2,3.3c-7,0-12.5-3.4-16.5-10.2c-1.5-2.6-2.6-5.6-3.4-8.9c-0.8-3.3-1.2-6.8-1.2-10.4
			c0-3.6,0.5-7.4,1.5-11.4c1-4,2.3-7.3,3.9-10c0.5-0.9,1.1-1.5,2-1.7c0.9-0.2,1.7-0.1,2.6,0.3c0.9,0.6,1.5,1.3,1.7,2.1
			c0.2,0.9,0.1,1.7-0.3,2.6c-1.4,2.3-2.4,4.9-3.2,7.9c-0.7,3-1.1,6.1-1.2,9.2c-0.1,3.1,0.2,6.2,0.8,9.1c0.6,3,1.5,5.5,2.7,7.7
			c2.7,4.5,6.2,6.8,10.6,6.8c1.2,0,2.4-0.3,3.5-0.9c1.1-0.6,2.1-1.4,3-2.3c0.9-0.9,1.7-1.9,2.3-2.9c0.6-1,1.2-1.9,1.6-2.7
			c1.4-3,2.4-6.3,3.2-10c0.8-3.7,1.2-7.3,1.2-11v-1c-3.3-0.5-6.3-1-8.9-1.7c-2.7-0.7-4.7-1.4-6-2.2c-3.2-1.7-5.2-3.7-6-6
			c-0.9-2.3-1-4.4-0.4-6.3c0.5-2.3,1.8-4.3,4.1-6c2.4-1.5,4.9-2.2,7.7-2.2s5.2,0.7,7.4,2.2c2.2,1.5,4.1,3.5,5.5,6.1
			c1.5,2.6,2.5,5.8,3.1,9.7c0.2,0,0.4,0,0.4,0.1c0.1,0.1,0.1,0.1,0.3,0.1c3.6,0.1,7.6-0.5,11.8-2c4.3-1.4,7.9-3.5,10.8-6.2
			c0.7-0.7,1.5-1,2.5-0.9C304.3,80.6,305,80.9,305.6,81.6z M259.5,85.9c0.9,0.5,2.3,0.9,4.3,1.4c1.9,0.5,4.2,1,6.8,1.4
			c-0.5-2.2-1.1-4.1-2-5.8c-1.7-3.2-4-4.8-7-4.8c-1.6,0-2.8,0.3-3.7,0.9c-0.9,0.6-1.4,1.3-1.6,2.1C255.9,82.9,257,84.4,259.5,85.9z"
			/>
		<path class="st0" d="M256.4,138.4c-8.8,0-16-4.4-20.8-12.7c-1.7-3.1-3-6.5-3.9-10.2c-0.9-3.7-1.3-7.6-1.3-11.6
			c0-4,0.6-8.3,1.7-12.7c1.1-4.3,2.6-8.1,4.4-11.2c1.1-2.1,2.9-3.6,5.1-4.1c1.4-0.4,2.9-0.4,4.3,0c1-2.4,2.8-4.5,5.2-6.3l0.4-0.3
			c3.2-2,6.6-3,10.3-3c3.7,0,7.1,1,10.2,3.1c2.9,1.9,5.3,4.5,7.1,7.8c1.2,2.1,2.1,4.5,2.8,7.2c2.1-0.2,4.4-0.8,6.8-1.6
			c3.5-1.2,6.5-2.9,9-5.1c1.7-1.6,3.9-2.4,6.2-2.3c2.3,0.1,4.3,1.1,5.7,2.7c1.6,1.7,2.4,3.8,2.2,6.1c-0.1,2.3-1.1,4.3-2.8,5.7
			c-2.2,2.1-4.6,3.8-7.2,5.3c-2.5,1.4-5.1,2.5-7.8,3.5c-2.7,1-5.5,1.6-8.2,2c-0.9,0.1-1.8,0.2-2.7,0.3c-0.2,3.2-0.7,6.3-1.3,9.3
			c-1,4.5-2.4,8.6-4.1,12.3c-2.4,4.8-5.3,8.6-8.8,11.2C264.9,136.9,260.8,138.4,256.4,138.4z M249,92.8c-0.2,0.7-0.4,1.4-0.6,2.2
			c-0.6,2.6-1,5.4-1,8.1c-0.1,2.8,0.2,5.5,0.7,8.1c0.5,2.4,1.2,4.4,2.1,6.1c2.3,3.8,4.5,4.3,6.2,4.3c0.4,0,0.7-0.1,1-0.3
			c0.7-0.4,1.3-0.9,1.9-1.5c0.6-0.6,1.2-1.3,1.6-2c0.5-0.9,1-1.7,1.4-2.4c1.2-2.6,2.1-5.5,2.8-8.7c0.5-2.2,0.8-4.5,1-6.7
			c-1.8-0.3-3.5-0.7-5.1-1.1c-3.1-0.8-5.5-1.7-7.2-2.7C251.9,95.2,250.3,94.1,249,92.8z M260.6,83.3L260.6,83.3L260.6,83.3z"/>
	</g>
</g>
</svg>
