<?xml version="1.0" encoding="utf-8"?>
<!-- Generator: Adobe Illustrator 26.4.1, SVG Export Plug-In . SVG Version: 6.00 Build 0)  -->
<svg version="1.1" id="Layer_1" xmlns="http://www.w3.org/2000/svg" xmlns:xlink="http://www.w3.org/1999/xlink" x="0px" y="0px"
	 viewBox="0 0 841.9 184.3" style="enable-background:new 0 0 841.9 184.3;" xml:space="preserve">
<style type="text/css">
	.st0{enable-background:new    ;}
	.st1{fill:#BB184F;}
	.st2{fill:#313131;}
</style>
<g class="st0">
	<path class="st1" d="M461.2,164.2h-3.5l-7.6-19h3.5l5.8,14.2l5.8-14.2h3.5L461.2,164.2z"/>
	<path class="st1" d="M471.3,147c-0.4-0.4-0.5-0.8-0.5-1.4c0-0.5,0.2-0.9,0.5-1.4c0.4-0.4,0.8-0.5,1.4-0.5s0.9,0.2,1.4,0.5
		c0.4,0.4,0.5,0.8,0.5,1.4c0,0.5-0.2,0.9-0.5,1.4c-0.4,0.4-0.8,0.5-1.4,0.5S471.6,147.3,471.3,147z M474.1,164.2h-3v-14.4h3V164.2z"
		/>
	<path class="st1" d="M488.7,159.9c0,1.4-0.5,2.5-1.5,3.3s-2.3,1.3-3.9,1.3c-1,0-2.1-0.2-3.2-0.5c-1.1-0.4-2.1-0.9-3-1.6l1.5-2.4
		c1.7,1.3,3.3,1.9,4.9,1.9c0.7,0,1.3-0.2,1.7-0.5c0.4-0.3,0.6-0.7,0.6-1.3c0-0.7-0.9-1.4-2.9-2c-0.1-0.1-0.2-0.1-0.3-0.1
		c-3-0.8-4.5-2.2-4.5-4.1c0-1.4,0.5-2.4,1.6-3.2c1-0.8,2.4-1.3,4.1-1.3s3.2,0.5,4.7,1.5l-1.1,2.3c-1.1-0.7-2.4-1.1-3.9-1.1
		c-0.7,0-1.4,0.1-1.8,0.4c-0.4,0.3-0.6,0.6-0.6,1.1s0.2,0.8,0.7,1c0.3,0.2,0.7,0.3,1.4,0.4c0.6,0.1,1.1,0.3,1.6,0.4
		c0.4,0.1,0.9,0.3,1.4,0.5c0.4,0.2,0.8,0.4,1.4,0.7C488.3,157.5,488.7,158.6,488.7,159.9z"/>
	<path class="st1" d="M502.3,157.6v-7.8h3v14.4h-3v-2.6c-0.5,0.8-1.1,1.6-2,2.1c-0.8,0.5-1.8,0.7-2.8,0.7c-1.7,0-2.9-0.5-4-1.5
		c-1-1-1.5-2.4-1.5-4.3v-8.9h3v7.9c0,2.6,1.1,4,3.3,4c1,0,2-0.3,2.7-1C501.9,160,502.3,159,502.3,157.6z"/>
	<path class="st1" d="M521.4,164.2h-2.8v-1.9c-1.1,1.5-2.8,2.2-4.8,2.2c-1.5,0-2.7-0.4-3.8-1.3c-0.9-0.8-1.5-2-1.5-3.4
		s0.5-2.5,1.6-3.2c1-0.7,2.5-1,4.3-1h4V155c0-1.9-1-2.9-3.2-2.9c-1.4,0-2.7,0.5-4.2,1.5l-1.4-1.9c1.8-1.4,3.8-2.1,5.9-2.1
		c1.7,0,3.1,0.4,4.2,1.3c1,0.8,1.6,2.2,1.6,4.1v9.3h0.1V164.2z M518.4,158.9v-1.3H515c-2.2,0-3.2,0.7-3.2,2.1c0,0.7,0.3,1.3,0.8,1.6
		c0.5,0.4,1.3,0.5,2.3,0.5c0.9,0,1.8-0.3,2.5-0.8C518.1,160.6,518.4,159.8,518.4,158.9z"/>
	<path class="st1" d="M528.7,164.2h-3v-20.1h3V164.2z"/>
	<path class="st1" d="M533.3,147c-0.4-0.4-0.5-0.8-0.5-1.4c0-0.5,0.2-0.9,0.5-1.4c0.4-0.4,0.8-0.5,1.4-0.5s0.9,0.2,1.4,0.5
		c0.4,0.4,0.5,0.8,0.5,1.4c0,0.5-0.2,0.9-0.5,1.4c-0.4,0.4-0.8,0.5-1.4,0.5S533.7,147.3,533.3,147z M536.1,164.2h-3v-14.4h3V164.2z"
		/>
	<path class="st1" d="M540.1,152.5v-2.6h11.3v2.7l-8.1,9h8.6v2.6h-12.2v-2.9l7.9-8.8H540.1L540.1,152.5z"/>
	<path class="st1" d="M568.6,158.4h-11.3c0.1,1,0.5,1.9,1.5,2.5c0.8,0.6,1.9,0.9,3,0.9c1.8,0,3.1-0.5,4.1-1.7l1.8,1.9
		c-1.6,1.6-3.5,2.4-6,2.4c-2,0-3.8-0.6-5.2-2c-1.5-1.4-2.1-3.1-2.1-5.4c0-2.3,0.7-4.1,2.2-5.4c1.5-1.4,3.1-2,5.1-2s3.7,0.6,5,1.8
		c1.4,1.1,2.1,2.8,2.1,4.9v2.1H568.6z M557.3,156h8.2c0-1.3-0.4-2.2-1.1-2.8c-0.7-0.6-1.7-0.9-2.8-0.9s-2.1,0.3-3,1
		C557.7,153.9,557.3,154.8,557.3,156z"/>
	<path class="st1" d="M572.1,163.9c-0.4-0.4-0.6-0.8-0.6-1.5c0-0.5,0.2-1,0.6-1.5c0.4-0.4,0.8-0.6,1.5-0.6c0.5,0,1,0.2,1.5,0.6
		c0.4,0.4,0.6,0.8,0.6,1.5c0,0.5-0.2,1-0.6,1.5s-0.8,0.6-1.5,0.6C572.9,164.4,572.5,164.3,572.1,163.9z"/>
	<path class="st1" d="M587.4,145.3h3.2v18.9h-3.2V145.3z"/>
	<path class="st1" d="M598.3,156.5v7.8h-3v-14.4h3v2.6c0.5-0.8,1.1-1.6,2-2.1s1.8-0.7,2.8-0.7c1.7,0,2.9,0.5,4,1.5
		c1,1,1.5,2.4,1.5,4.3v8.9h-3v-7.9c0-2.6-1.1-4-3.3-4c-1,0-2,0.3-2.7,1C598.7,154.1,598.3,155.1,598.3,156.5z"/>
	<path class="st1" d="M615.8,156.5v7.8h-3v-14.4h3v2.6c0.5-0.8,1.1-1.6,2-2.1c0.8-0.5,1.8-0.7,2.8-0.7c1.7,0,2.9,0.5,4,1.5
		c1,1,1.5,2.4,1.5,4.3v8.9h-3v-7.9c0-2.6-1.1-4-3.3-4c-1,0-2,0.3-2.7,1C616.2,154.1,615.8,155.1,615.8,156.5z"/>
	<path class="st1" d="M642.4,162.3c-1.5,1.5-3.2,2.2-5.4,2.2s-4-0.7-5.4-2.2c-1.5-1.5-2.2-3.2-2.2-5.3s0.7-3.9,2.2-5.3
		s3.2-2.2,5.4-2.2s4,0.7,5.4,2.2c1.5,1.5,2.2,3.2,2.2,5.3C644.5,159.1,643.7,160.9,642.4,162.3z M633.6,160.5c0.8,0.8,2,1.4,3.2,1.4
		c1.4,0,2.4-0.4,3.2-1.4c0.8-0.8,1.3-2,1.3-3.4s-0.4-2.5-1.3-3.4c-0.8-0.8-2-1.4-3.2-1.4c-1.4,0-2.4,0.4-3.2,1.4
		c-0.8,0.8-1.3,2-1.3,3.4C632.4,158.5,632.8,159.5,633.6,160.5z"/>
	<path class="st1" d="M651.6,164.2l-5.8-14.4h3.1l4.4,10.8l4.4-10.8h3.1l-5.8,14.4H651.6z"/>
	<path class="st1" d="M674.7,164.2h-2.8v-1.9c-1.1,1.5-2.8,2.2-4.8,2.2c-1.5,0-2.7-0.4-3.8-1.3c-0.9-0.8-1.5-2-1.5-3.4
		s0.5-2.5,1.6-3.2c1-0.7,2.5-1,4.3-1h4V155c0-1.9-1-2.9-3.2-2.9c-1.4,0-2.7,0.5-4.2,1.5l-1.4-1.9c1.8-1.4,3.8-2.1,5.9-2.1
		c1.7,0,3.1,0.4,4.2,1.3c1,0.8,1.6,2.2,1.6,4.1v9.3h0.1V164.2z M671.7,158.9v-1.3h-3.4c-2.2,0-3.2,0.7-3.2,2.1
		c0,0.7,0.3,1.3,0.8,1.6c0.5,0.4,1.3,0.5,2.3,0.5c0.9,0,1.8-0.3,2.5-0.8C671.3,160.6,671.7,159.8,671.7,158.9z"/>
	<path class="st1" d="M682.5,152.3v7.3c0,0.7,0.2,1.3,0.5,1.7s0.8,0.6,1.6,0.6c0.6,0,1.3-0.3,1.9-0.9l1.3,2.2
		c-1,0.9-2.3,1.5-3.5,1.5s-2.4-0.4-3.3-1.4s-1.4-2.1-1.4-3.7v-7.2h-1.8V150h1.8v-4.5h3v4.5h3.8v2.4L682.5,152.3L682.5,152.3
		L682.5,152.3z"/>
	<path class="st1" d="M703.5,158.4h-11.3c0.1,1,0.5,1.9,1.5,2.5c0.8,0.6,1.9,0.9,3,0.9c1.8,0,3.1-0.5,4.1-1.7l1.8,1.9
		c-1.6,1.6-3.5,2.4-6,2.4c-2,0-3.8-0.6-5.2-2c-1.5-1.4-2.1-3.1-2.1-5.4c0-2.3,0.7-4.1,2.2-5.4c1.5-1.4,3.1-2,5.1-2s3.7,0.6,5,1.8
		c1.4,1.1,2.1,2.8,2.1,4.9v2.1H703.5z M692.2,156h8.2c0-1.3-0.4-2.2-1.1-2.8c-0.7-0.6-1.7-0.9-2.8-0.9s-2.1,0.3-3,1
		C692.7,153.9,692.2,154.8,692.2,156z"/>
	<path class="st1" d="M707.1,163.9c-0.4-0.4-0.6-0.8-0.6-1.5c0-0.5,0.2-1,0.6-1.5c0.4-0.4,0.8-0.6,1.5-0.6c0.5,0,1,0.2,1.5,0.6
		c0.4,0.4,0.6,0.8,0.6,1.5c0,0.5-0.2,1-0.6,1.5c-0.4,0.4-0.8,0.6-1.5,0.6C707.9,164.4,707.4,164.3,707.1,163.9z"/>
	<path class="st1" d="M730.9,161.4c1.1,0,2.1-0.2,2.8-0.5c0.8-0.4,1.7-0.9,2.5-1.8l2.1,2.1c-2,2.2-4.5,3.3-7.3,3.3s-5.2-0.9-7.1-2.8
		s-2.8-4.2-2.8-7s0.9-5.2,2.9-7.1c1.9-1.9,4.4-2.8,7.3-2.8c2.9,0,5.4,1,7.4,3.2l-2,2.2c-0.9-0.8-1.8-1.5-2.6-1.8s-1.8-0.5-2.8-0.5
		c-1.9,0-3.5,0.6-4.8,1.9c-1.3,1.3-2,2.8-2,4.7s0.6,3.5,2,4.8C727.6,160.7,729.2,161.4,730.9,161.4z"/>
	<path class="st1" d="M749.4,152.6c-1.5,0-2.6,0.5-3.3,1.5s-1.1,2.3-1.1,4v6.2h-3v-14.4h3v2.9c0.5-0.9,1.1-1.7,2-2.2
		c0.8-0.6,1.8-0.8,2.7-0.9v3C749.5,152.6,749.4,152.6,749.4,152.6z"/>
	<path class="st1" d="M766,158.4h-11.3c0.1,1,0.5,1.9,1.5,2.5c0.8,0.6,1.9,0.9,3,0.9c1.8,0,3.1-0.5,4.1-1.7l1.8,1.9
		c-1.6,1.6-3.5,2.4-6,2.4c-2,0-3.8-0.6-5.2-2c-1.5-1.4-2.1-3.1-2.1-5.4c0-2.3,0.7-4.1,2.2-5.4c1.5-1.4,3.1-2,5.1-2s3.7,0.6,5,1.8
		c1.4,1.1,2.1,2.8,2.1,4.9v2.1H766z M754.7,156h8.2c0-1.3-0.4-2.2-1.1-2.8c-0.7-0.6-1.7-0.9-2.8-0.9s-2.1,0.3-3,1
		C755.1,153.9,754.7,154.8,754.7,156z"/>
	<path class="st1" d="M781,164.2h-2.8v-1.9c-1.1,1.5-2.8,2.2-4.8,2.2c-1.5,0-2.7-0.4-3.8-1.3c-0.9-0.8-1.5-2-1.5-3.4
		s0.5-2.5,1.6-3.2c1-0.7,2.5-1,4.3-1h4V155c0-1.9-1-2.9-3.2-2.9c-1.4,0-2.7,0.5-4.2,1.5l-1.4-1.9c1.8-1.4,3.8-2.1,5.9-2.1
		c1.7,0,3.1,0.4,4.2,1.3c1,0.8,1.6,2.2,1.6,4.1v9.3h0.1V164.2z M778,158.9v-1.3h-3.4c-2.2,0-3.2,0.7-3.2,2.1c0,0.7,0.3,1.3,0.8,1.6
		c0.5,0.4,1.3,0.5,2.3,0.5s1.8-0.3,2.5-0.8C777.6,160.6,778,159.8,778,158.9z"/>
	<path class="st1" d="M788.8,152.3v7.3c0,0.7,0.2,1.3,0.5,1.7s0.8,0.6,1.6,0.6c0.7,0,1.3-0.3,1.9-0.9l1.3,2.2
		c-1,0.9-2.3,1.5-3.5,1.5s-2.4-0.4-3.3-1.4s-1.4-2.1-1.4-3.7v-7.2H784V150h1.8v-4.5h3v4.5h3.8v2.4L788.8,152.3L788.8,152.3z"/>
	<path class="st1" d="M809.8,158.4h-11.3c0.1,1,0.5,1.9,1.5,2.5c0.8,0.6,1.9,0.9,3,0.9c1.8,0,3.1-0.5,4.1-1.7l1.8,1.9
		c-1.6,1.6-3.5,2.4-6,2.4c-2,0-3.8-0.6-5.2-2c-1.5-1.4-2.1-3.1-2.1-5.4c0-2.3,0.7-4.1,2.2-5.4c1.5-1.4,3.1-2,5.1-2s3.7,0.6,5,1.8
		c1.4,1.1,2.1,2.8,2.1,4.9v2.1H809.8z M798.5,156h8.2c0-1.3-0.4-2.2-1.1-2.8c-0.7-0.6-1.7-0.9-2.8-0.9s-2.1,0.3-3,1
		C798.9,153.9,798.5,154.8,798.5,156z"/>
</g>
<path d="M598.9,219.8"/>
<g>
	<path class="st2" d="M465,53.6h7.8v-21c0,0,0-0.1-0.1-0.1h-22.6c0,0-0.1,0-0.1,0.1v35.9C450.1,60.2,456.8,53.6,465,53.6z"/>
	<path class="st2" d="M450,89.7v40.8c0,0,0,0.1,0.1,0.1h22.6c0,0,0.1,0,0.1-0.1v-25.8H465C456.8,104.7,450,98,450,89.7z"/>
	<path class="st2" d="M550,59.1h-77.1c-9.2,0-16.6,7.4-16.6,16.6v7.2c0,9.2,7.4,16.6,16.6,16.6H550c9.2,0,16.6-7.4,16.6-16.6v-7.2
		C566.5,66.4,559.1,59.1,550,59.1z"/>
</g>
<polygon points="482.6,72.8 489.4,72.8 489.4,72.8 "/>
<circle class="st1" cx="574.9" cy="80.6" r="49.7"/>
<path class="st2" d="M103.1,80h22.2v35c-9.8,10.9-23.3,16.4-40.6,16.4c-14.5,0-26.7-4.8-36.5-14.4S33.5,95.3,33.5,80.7
	s5-26.8,15-36.6s22.1-14.7,36.3-14.7s26.5,4.7,36.9,14l-11.4,16.5c-4.4-3.9-8.5-6.5-12.2-8s-7.7-2.2-12.1-2.2
	c-8.4,0-15.4,2.8-21.2,8.5c-5.7,5.7-8.6,13.2-8.6,22.5s2.8,16.8,8.3,22.4s12.1,8.4,19.7,8.4c7.6,0,14-1.5,19.1-4.4V80H103.1z"/>
<path class="st2" d="M228.4,64.4c0,15.8-6.3,26-18.8,30.6l25,35.3h-27.1l-21.9-31.5h-15.2v31.5h-22V31.6h37.4
	c15.3,0,26.3,2.6,32.8,7.8C225.1,44.6,228.4,52.9,228.4,64.4z M201.9,76.1c2.7-2.4,4.1-6.3,4.1-11.6s-1.4-9-4.2-10.9
	c-2.8-2-7.8-3-14.8-3h-16.5v29.2h16.1C194,79.8,199.2,78.5,201.9,76.1z"/>
<path class="st2" d="M324.8,130.3l-9.2-21.3h-41.3l-9.2,21.3h-23.4l42.6-98.6h21.3l42.6,98.6H324.8z M295,61l-12.4,28.6h24.7L295,61
	z"/>
<path class="st2" d="M398.8,130.3h-22v-39l-34.2-59.7h23.9l21.3,36.7l21.3-36.7H433l-34.2,59.7L398.8,130.3L398.8,130.3z"/>
<path class="st2" d="M671.7,51.3c-2.1,1.7-3.2,4-3.2,6.9s1.3,5.2,3.9,6.8c2.6,1.7,8.6,3.7,17.9,6c9.4,2.3,16.6,5.8,21.8,10.4
	s7.8,11.3,7.8,20.2c0,8.8-3.3,16-9.9,21.5c-6.6,5.5-15.4,8.3-26.2,8.3c-15.6,0-29.7-5.8-42.2-17.4l13.1-16c10.6,9.3,20.5,14,29.5,14
	c4,0,7.2-0.9,9.5-2.6s3.5-4.1,3.5-7.1s-1.2-5.3-3.7-7.1c-2.4-1.7-7.3-3.5-14.5-5.3c-11.5-2.7-19.9-6.3-25.2-10.7
	c-5.3-4.4-8-11.2-8-20.6s3.4-16.6,10.1-21.7c6.7-5.1,15.1-7.6,25.2-7.6c6.6,0,13.2,1.1,19.8,3.4s12.3,5.5,17.2,9.6L707,58.4
	c-8.6-6.5-17.4-9.7-26.5-9.7C676.7,48.7,673.9,49.6,671.7,51.3z"/>
<path class="st2" d="M783.2,50.7v79.6h-22V50.7h-27.9V31.6h77.9v19.1H783.2z"/>
</svg>
