<?xml version="1.0" encoding="utf-8"?>
<!-- Generator: Adobe Illustrator 26.4.1, SVG Export Plug-In . SVG Version: 6.00 Build 0)  -->
<svg version="1.1" id="Layer_1" xmlns="http://www.w3.org/2000/svg" xmlns:xlink="http://www.w3.org/1999/xlink" x="0px" y="0px"
	 viewBox="0 0 143.4 150.1" style="enable-background:new 0 0 143.4 150.1;" xml:space="preserve">
<style type="text/css">
	.st0{fill:#BB184F;}
	.st1{fill:#FFFFFF;}
</style>
<circle class="st0" cx="71.7" cy="75.1" r="65.9"/>
<path class="st1" d="M110.5,64.8c0.6-0.5,1.5,0,1.5,0.7v32.2c0,4.2-3.4,7.6-7.6,7.6H38.9c-4.2,0-7.6-3.4-7.6-7.6V65.5
	c0-0.8,0.9-1.2,1.5-0.7c3.5,2.7,8.2,6.2,24.3,17.9c3.3,2.4,8.9,7.5,14.5,7.5c5.6,0,11.3-5.2,14.5-7.5C102.3,71,107,67.5,110.5,64.8z
	 M71.7,85.1c3.7,0.1,8.9-4.6,11.6-6.5c20.9-15.2,22.5-16.5,27.3-20.3c0.9-0.7,1.4-1.8,1.4-3v-3c0-4.2-3.4-7.6-7.6-7.6H38.9
	c-4.2,0-7.6,3.4-7.6,7.6v3c0,1.2,0.5,2.3,1.4,3c4.8,3.8,6.4,5.1,27.3,20.3C62.8,80.5,68,85.2,71.7,85.1L71.7,85.1z"/>
</svg>
