<?xml version="1.0" encoding="utf-8"?>
<!-- Generator: Adobe Illustrator 26.4.1, SVG Export Plug-In . SVG Version: 6.00 Build 0)  -->
<svg version="1.1" id="Layer_1" xmlns="http://www.w3.org/2000/svg" xmlns:xlink="http://www.w3.org/1999/xlink" x="0px" y="0px"
	 viewBox="0 0 143.4 150.1" style="enable-background:new 0 0 143.4 150.1;" xml:space="preserve">
<style type="text/css">
	.st0{fill:#15959E;}
	.st1{fill:#FFFFFF;}
</style>
<circle class="st0" cx="71.7" cy="75.1" r="65.9"/>
<path class="st1" d="M66.3,85.2v26.2L70,117c0.8,1.2,2.5,1.2,3.3,0l3.7-5.5V85.2c-1.7,0.3-3.5,0.5-5.4,0.5S68.1,85.6,66.3,85.2z
	 M71.7,32.2c-13.3,0-24.1,10.8-24.1,24.1s10.8,24.1,24.1,24.1s24.1-10.8,24.1-24.1S85,32.2,71.7,32.2z M71.7,45
	c-6.3,0-11.4,5.1-11.4,11.4c0,1.1-0.9,2-2,2s-2-0.9-2-2c0-8.5,6.9-15.4,15.4-15.4c1.1,0,2,0.9,2,2S72.8,45,71.7,45z"/>
</svg>
