<?xml version="1.0" encoding="utf-8"?>
<!-- Generator: Adobe Illustrator 26.4.1, SVG Export Plug-In . SVG Version: 6.00 Build 0)  -->
<svg version="1.1" id="Layer_1" xmlns="http://www.w3.org/2000/svg" xmlns:xlink="http://www.w3.org/1999/xlink" x="0px" y="0px"
	 viewBox="0 0 143.4 150.1" style="enable-background:new 0 0 143.4 150.1;" xml:space="preserve">
<style type="text/css">
	.st0{fill:#15959E;}
	.st1{fill:#FFFFFF;}
</style>
<circle class="st0" cx="71.7" cy="75.1" r="65.9"/>
<path class="st1" d="M93.7,29.1L49.8,29C45,29,41,32.9,41,37.8v74.6c0,4.8,3.9,8.8,8.8,8.8h43.9c4.8,0,8.8-3.9,8.8-8.8V37.7
	C102.5,32.9,98.5,29.1,93.7,29.1z M63.4,33.7H80V37H63.4V33.7z M71.7,119.5c-3.3,0-6-2.7-6-6s2.7-6,6-6s6,2.7,6,6
	C77.7,116.9,75,119.5,71.7,119.5z M94.8,105.8H48.7V44.4h46.1V105.8z"/>
</svg>
