<?xml version="1.0" encoding="utf-8"?>
<!-- Generator: Adobe Illustrator 26.4.1, SVG Export Plug-In . SVG Version: 6.00 Build 0)  -->
<svg version="1.1" id="Layer_1" xmlns="http://www.w3.org/2000/svg" xmlns:xlink="http://www.w3.org/1999/xlink" x="0px" y="0px"
	 viewBox="0 0 143.4 150.1" style="enable-background:new 0 0 143.4 150.1;" xml:space="preserve">
<style type="text/css">
	.st0{fill:#15959E;}
</style>
<g>
	<path class="st0" d="M72.6,9.8C36.2,9.8,6.7,39.3,6.7,75.7s29.5,65.9,65.9,65.9s65.9-29.5,65.9-65.9S109,9.8,72.6,9.8z
		 M109.9,103.6L86.7,88.3c-4.5,5-10.9,8.2-18.2,8.2c-13.4,0-24.4-10.9-24.4-24.4c0-13.4,10.9-24.4,24.4-24.4s24.4,10.9,24.4,24.4
		c0,3.8-0.9,7.4-2.5,10.7L113.6,98L109.9,103.6z"/>
	<circle class="st0" cx="68.5" cy="72.1" r="16.3"/>
</g>
</svg>
