<?xml version="1.0" encoding="utf-8"?>
<!-- Generator: Adobe Illustrator 26.4.1, SVG Export Plug-In . SVG Version: 6.00 Build 0)  -->
<svg version="1.1" id="Layer_1" xmlns="http://www.w3.org/2000/svg" xmlns:xlink="http://www.w3.org/1999/xlink" x="0px" y="0px"
	 viewBox="0 0 143.4 150.1" style="enable-background:new 0 0 143.4 150.1;" xml:space="preserve">
<style type="text/css">
	.st0{fill:#15959E;}
	.st1{fill:#FFFFFF;}
</style>
<circle class="st0" cx="71.7" cy="75.1" r="65.9"/>
<path class="st1" d="M105.4,42.9H33.5c0,0.7-0.1,1.5-0.1,2.2v40.8c0,19.9,16.1,36,36,36h0c19.9,0,36-16.1,36-36V45.1
	C105.5,44.3,105.5,43.6,105.4,42.9z M97.8,65.9l-37.2,37.2L43.4,86c-2-2-2-5.4,0-7.4c2-2,5.4-2,7.4,0l9.8,9.8l29.8-29.8
	c2-2,5.4-2,7.4,0C99.8,60.6,99.8,63.9,97.8,65.9z"/>
</svg>
