<?xml version="1.0" encoding="utf-8"?>
<!-- Generator: Adobe Illustrator 26.4.1, SVG Export Plug-In . SVG Version: 6.00 Build 0)  -->
<svg version="1.1" id="Layer_1" xmlns="http://www.w3.org/2000/svg" xmlns:xlink="http://www.w3.org/1999/xlink" x="0px" y="0px"
	 viewBox="0 0 143.4 150.1" style="enable-background:new 0 0 143.4 150.1;" xml:space="preserve">
<style type="text/css">
	.st0{fill:#15959E;}
	.st1{fill:#FFFFFF;}
</style>
<circle class="st0" cx="71.7" cy="75.1" r="65.9"/>
<g>
	<path class="st1" d="M65,71.9c-0.4,0-0.8,0.1-1.2,0.2c0.2,0.3,0.3,0.7,0.3,1.1c0,1-0.8,1.9-1.9,1.9c-0.3,0-0.5-0.1-0.7-0.1v0.1
		c0,1.7,1.5,3.1,3.4,3.1c1.9,0,3.4-1.4,3.4-3.1C68.4,73.3,66.9,71.9,65,71.9z"/>
	<path class="st1" d="M46,87.7c1.4-3.8,0.6-8.2-2.5-11.2c-2.9-2.9-7-3.8-10.7-2.6c-0.5,0.2-0.7,0.9,0,1.1c0.5,0.2,0.6,0.2,1.4,0.5
		c0.7,0.3,3.5,2.3,4.4,3.8s1.3,5.3-0.5,7.2L38,86.6c0,0,0,0.1-0.1,0.1c-1.8,1.8-5.6,1.5-7.2,0.5c-1.5-0.9-3.4-3.7-3.8-4.4
		c-0.3-0.7-0.3-0.8-0.5-1.4c-0.2-0.7-0.9-0.5-1.1,0c-1.2,3.7-0.3,7.7,2.6,10.7c3.1,3.1,7.6,3.9,11.4,2.4l16.1,16.1
		c1.8,1.8,4.8,1.8,6.6,0s1.8-4.8,0-6.6L46,87.7z M60.6,108.7c-0.8,0.8-2.2,0.8-3,0s-0.8-2.2,0-3s2.2-0.8,3,0
		C61.4,106.5,61.4,107.8,60.6,108.7z"/>
	<path class="st1" d="M81.1,75c-1,0-1.9-0.8-1.9-1.9c0-0.4,0.1-0.8,0.3-1.1c-0.4-0.1-0.7-0.2-1.2-0.2c-1.9,0-3.4,1.4-3.4,3.1
		s1.5,3.1,3.4,3.1s3.4-1.4,3.4-3.1c0-0.1,0-0.1,0-0.1C81.6,75,81.4,75,81.1,75z"/>
	<path class="st1" d="M117.9,81.2c-0.2-0.5-0.9-0.7-1.1,0c-0.2,0.5-0.2,0.6-0.5,1.4c-0.3,0.7-2.3,3.5-3.8,4.4s-5.3,1.3-7.2-0.5
		c0,0,0-0.1-0.1-0.1l-0.1-0.1c-1.8-1.8-1.5-5.6-0.5-7.2c0.9-1.5,3.7-3.4,4.4-3.8c0.7-0.3,0.8-0.3,1.4-0.5c0.7-0.2,0.5-0.9,0-1.1
		c-3.7-1.2-7.7-0.3-10.7,2.6c-3,3-3.8,7.4-2.5,11.2L81,103.7c-1.8,1.8-1.8,4.8,0,6.6c1.8,1.8,4.8,1.8,6.6,0l16.1-16.1
		c3.8,1.5,8.3,0.7,11.4-2.4C118.2,89,119.1,84.9,117.9,81.2z M85.8,108.7c-0.8,0.8-2.2,0.8-3,0s-0.8-2.2,0-3s2.2-0.8,3,0
		C86.7,106.5,86.7,107.8,85.8,108.7z"/>
	<path class="st1" d="M95.3,62.5c0-0.9-0.4-1.2-1.2-1.2c-0.1,0-0.8,0-1.9,0C92,60.5,92,59.8,92,59c0-6.9-4.6-13-9.9-16.8
		c0,0.2,0,0.3,0,0.5c0,0.5,0,1.1-0.1,1.6c0,0.5-0.1,1.1-0.2,1.6c-0.1,1-0.3,2.1-0.5,3c-0.2,1-0.4,1.9-0.7,2.8
		c-0.3,0.9-0.5,1.7-0.8,2.4c-0.6,1.5-1.2,2.7-1.7,3.5s-0.8,1.2-0.8,1.2s0-0.1,0-0.4c0-0.2,0-0.6,0.1-1.1c0.1-0.9,0.1-2.2,0.2-3.8
		c0.1-1.5,0.2-3.3,0.3-5.2c0-0.9,0.1-1.9,0.1-2.9c0-0.5,0-1,0.1-1.5c0-0.5,0-1,0-1.5c0.1-0.8,0.1-1.7,0.1-2.5
		c-2.3-1.1-4.5-1.7-6.5-1.7c-2,0.1-4.2,0.7-6.5,1.7c0,0.8,0,1.7,0.1,2.5c0,0.5,0,1,0,1.5s0.1,1,0.1,1.5c0.1,1,0.1,2,0.1,2.9
		c0.1,1.9,0.2,3.7,0.3,5.2c0.1,1.6,0.2,2.8,0.2,3.8c0,0.5,0,0.8,0.1,1.1c0,0.3,0,0.4,0,0.4s-0.3-0.4-0.8-1.2s-1.1-2-1.7-3.5
		c-0.3-0.7-0.6-1.6-0.8-2.4c-0.2-0.9-0.5-1.8-0.7-2.8s-0.4-2-0.5-3c-0.1-0.5-0.1-1-0.2-1.6c0-0.5,0-1.1-0.1-1.6c0-0.2,0-0.3,0-0.5
		c-5.4,3.8-9.9,9.9-9.9,16.8c0,0.8-0.1,1.5-0.1,2.2c-1.1,0-1.8,0-1.9,0c-0.9,0-1.2,0.4-1.2,1.2c0,0.9,0,5.8,0,5.8h2.7
		c0,0.6-0.1,1.1-0.1,1.7c0,13.4,9.1,23.8,20.8,23.8l0,0l0,0c11.6,0,20.8-10.5,20.8-23.8c0-0.6,0-1.2-0.1-1.7H95
		C95.3,68.3,95.3,63.4,95.3,62.5z M71.8,91.5L71.8,91.5L71.8,91.5C61.4,91.5,53.3,82,53.3,70c0-0.6,0-1.2,0.1-1.7h18.4h18.4
		c0,0.6,0.1,1.1,0.1,1.7C90.3,82.1,82.2,91.5,71.8,91.5z"/>
</g>
</svg>
