<?xml version="1.0" encoding="utf-8"?>
<!-- Generator: Adobe Illustrator 26.4.1, SVG Export Plug-In . SVG Version: 6.00 Build 0)  -->
<svg version="1.1" id="Layer_1" xmlns="http://www.w3.org/2000/svg" xmlns:xlink="http://www.w3.org/1999/xlink" x="0px" y="0px"
	 viewBox="0 0 143.4 150.1" style="enable-background:new 0 0 143.4 150.1;" xml:space="preserve">
<style type="text/css">
	.st0{fill:#BB184F;}
	.st1{fill:#FFFFFF;}
</style>
<circle class="st0" cx="71.7" cy="75.1" r="65.9"/>
<path class="st1" d="M100.9,76.4v-4.6c0-7.7-3.1-15.2-8.5-20.6c-5.5-5.5-12.9-8.5-20.6-8.5c-7.7,0-15.2,3.1-20.6,8.5
	c-5.5,5.5-8.5,12.9-8.5,20.6v4.6c-3.4,1.5-6.2,4.1-7.9,7.4c-1.7,3.3-2.2,7.1-1.5,10.7c0.8,3.6,2.7,6.9,5.6,9.2
	c2.9,2.3,6.5,3.6,10.2,3.6h6.5V75.1H49v-3.2c0-6,2.4-11.8,6.6-16c4.3-4.3,10-6.6,16-6.6c6,0,11.8,2.4,16,6.6c4.3,4.3,6.6,10,6.6,16
	v3.2h-6.5V101h-13v6.5h19.4c3.7,0,7.3-1.3,10.2-3.6s4.9-5.6,5.6-9.2c0.8-3.6,0.2-7.4-1.5-10.7C107.1,80.5,104.3,77.9,100.9,76.4z
	 M49,101c-2.6,0-5.1-1-6.9-2.8c-1.8-1.8-2.8-4.3-2.8-6.9c0-2.6,1-5.1,2.8-6.9c1.8-1.8,4.3-2.8,6.9-2.8V101z M94.4,101V81.5
	c2.6,0,5.1,1,6.9,2.8c1.8,1.8,2.8,4.3,2.8,6.9c0,2.6-1,5.1-2.8,6.9C99.4,100,97,101,94.4,101z"/>
</svg>
