<?xml version="1.0" encoding="utf-8"?>
<!-- Generator: Adobe Illustrator 26.4.1, SVG Export Plug-In . SVG Version: 6.00 Build 0)  -->
<svg version="1.1" id="Layer_1" xmlns="http://www.w3.org/2000/svg" xmlns:xlink="http://www.w3.org/1999/xlink" x="0px" y="0px"
	 viewBox="0 0 143.4 150.1" style="enable-background:new 0 0 143.4 150.1;" xml:space="preserve">
<style type="text/css">
	.st0{fill:#15959E;}
	.st1{fill:#FFFFFF;}
</style>
<circle class="st0" cx="71.7" cy="75.1" r="65.9"/>
<path class="st1" d="M91,39h-8c1.6,3.6,2.5,7.7,2.5,11.9h8.4v41.8H59.1V80.3c-1.1,0.1-2.1,0.2-3.2,0.2c-1.3,0-2.6-0.1-3.8-0.3v29.4
	c0,5.6,4.6,10.2,10.2,10.2H91c5.6,0,10.2-4.6,10.2-10.2V49.3C101.2,43.6,96.6,39,91,39z M93.9,113.6H59.1v-4.9h34.8V113.6z
	 M93.9,104H59.1v-4.9h34.8V104z"/>
<path class="st1" d="M55.9,26.4c-13.6,0-24.6,11-24.6,24.6s11,24.6,24.6,24.6c13.6,0,24.6-11,24.6-24.6S69.5,26.4,55.9,26.4z
	 M59.6,52.4c0,5.8-3.1,8.2-7.2,8.2c-3.9,0-6.8-2.2-6.8-8.1V41.3H48v11.2c0,4.3,1.9,6.1,4.4,6.1c2.8,0,4.6-1.9,4.6-6.1V41.3h2.5V52.4
	z M66.3,60.3h-2.5v-19h2.5V60.3z"/>
</svg>
