<?xml version="1.0" encoding="utf-8"?>
<!-- Generator: Adobe Illustrator 26.4.1, SVG Export Plug-In . SVG Version: 6.00 Build 0)  -->
<svg version="1.1" id="Layer_1" xmlns="http://www.w3.org/2000/svg" xmlns:xlink="http://www.w3.org/1999/xlink" x="0px" y="0px"
	 viewBox="0 0 143.4 150.1" style="enable-background:new 0 0 143.4 150.1;" xml:space="preserve">
<style type="text/css">
	.st0{fill:#15959E;}
	.st1{fill:#FFFFFF;}
</style>
<circle class="st0" cx="71.7" cy="75.1" r="65.9"/>
<ellipse class="st1" cx="71.7" cy="51.2" rx="13.2" ry="13.2"/>
<g>
	<path class="st1" d="M117,65.9c-1.7,3.3-5,5.5-9,5.5c-3.9,0-7.3-2.2-9-5.5c-4.4,1.6-7.5,5.9-7.5,10.8v8.1c0,6.4,5.2,11.5,11.5,11.5
		h9.7c6.4,0,11.5-5.2,11.5-11.5v-8.1C124.5,71.8,121.4,67.6,117,65.9z"/>
	<ellipse class="st1" cx="108" cy="61.4" rx="7.6" ry="7.6"/>
</g>
<g>
	<path class="st1" d="M46.1,67.3c0.2-0.3,0.4-0.5,0.5-0.8C46.5,66.7,46.3,67,46.1,67.3z"/>
	<path class="st1" d="M88.6,86.5V77c0-5.1,2.8-9.6,7-11.9c-2.2-2.7-5.1-4.7-8.4-6c-2.9,5.7-8.8,9.6-15.6,9.6
		c-6.8,0-12.7-3.9-15.6-9.6c-3.6,1.4-6.7,3.8-9,6.8c4.3,1.7,7.4,5.9,7.4,10.8v8.1c0,6.2-4.8,11.2-10.9,11.5c2,9.1,10,15.8,19.7,15.8
		h17c8.4,0,15.6-5.1,18.6-12.4C92.9,98.2,88.6,92.9,88.6,86.5z"/>
</g>
<g>
	<path class="st1" d="M45,68.9c-1.3,2.5-3.9,4.3-7,4.3c-3,0-5.7-1.7-7-4.3c-3.4,1.3-5.8,4.6-5.8,8.4v6.3c0,5,4,9,9,9h7.6
		c5,0,9-4,9-9v-6.3C50.8,73.5,48.4,70.2,45,68.9z"/>
	<ellipse class="st1" cx="38" cy="65.4" rx="5.9" ry="5.9"/>
</g>
</svg>
